<?xml version="1.0" encoding="utf-8"?>
<!-- Generator: Adobe Illustrator 19.0.1, SVG Export Plug-In . SVG Version: 6.00 Build 0)  -->
<svg version="1.1" id="Capa_1" xmlns="http://www.w3.org/2000/svg" xmlns:xlink="http://www.w3.org/1999/xlink" x="0px" y="0px"
	 viewBox="-283 374.8 44.2 44.2" style="enable-background:new -283 374.8 44.2 44.2;" xml:space="preserve">
<style type="text/css">
	.st0{fill:#FFFFFF;}
</style>
<g>
	<g>
		<path class="st0" d="M-260.9,419c-12.2,0-22.1-9.9-22.1-22.1c0-12.2,9.9-22.1,22.1-22.1c12.2,0,22.1,9.9,22.1,22.1
			C-238.8,409.1-248.7,419-260.9,419z M-260.9,376.3c-11.4,0-20.6,9.2-20.6,20.6c0,11.4,9.2,20.6,20.6,20.6
			c11.4,0,20.6-9.2,20.6-20.6C-240.3,385.5-249.5,376.3-260.9,376.3z"/>
		<path class="st0" d="M-263.7,404.6c-0.2,0-0.4-0.1-0.5-0.2c-0.3-0.3-0.3-0.8,0-1.1l6.8-6.8l-6.8-6.8c-0.3-0.3-0.3-0.8,0-1.1
			c0.3-0.3,0.8-0.3,1.1,0l7.3,7.3c0.3,0.3,0.3,0.8,0,1.1l-7.3,7.3C-263.3,404.6-263.5,404.6-263.7,404.6z"/>
	</g>
</g>
</svg>
